<?xml version="1.0" encoding="UTF-8" standalone="no"?>
<!DOCTYPE svg PUBLIC "-//W3C//DTD SVG 1.1//EN" "http://www.w3.org/Graphics/SVG/1.1/DTD/svg11.dtd">
<svg width="100%" height="100%" viewBox="0 0 70 90" version="1.1" xmlns="http://www.w3.org/2000/svg" xmlns:xlink="http://www.w3.org/1999/xlink" xml:space="preserve" xmlns:serif="http://www.serif.com/" style="fill-rule:evenodd;clip-rule:evenodd;stroke-linejoin:round;stroke-miterlimit:2;">
    <g transform="matrix(1,0,0,1,-60,-60)">
        <g id="List" transform="matrix(1,0,0,0.897,0,6.18002)">
            <g transform="matrix(0.932034,0,0,1.42857,-635.195,-425.714)">
                <path d="M767.348,343.902C767.348,341.748 764.944,340 761.983,340L751.254,340C748.293,340 745.889,341.748 745.889,343.902L745.889,356.098C745.889,358.252 748.293,360 751.254,360L761.983,360C764.944,360 767.348,358.252 767.348,356.098L767.348,343.902Z" style="fill:rgb(19,112,189);"/>
            </g>
            <g transform="matrix(0.932034,0,0,1.42857,-635.195,-390)">
                <path d="M767.348,343.902C767.348,341.748 764.944,340 761.983,340L751.254,340C748.293,340 745.889,341.748 745.889,343.902L745.889,356.098C745.889,358.252 748.293,360 751.254,360L761.983,360C764.944,360 767.348,358.252 767.348,356.098L767.348,343.902Z" style="fill:rgb(19,112,189);"/>
            </g>
            <g transform="matrix(0.932034,0,0,1.42857,-635.195,-354.286)">
                <path d="M767.348,343.902C767.348,341.748 764.944,340 761.983,340L751.254,340C748.293,340 745.889,341.748 745.889,343.902L745.889,356.098C745.889,358.252 748.293,360 751.254,360L761.983,360C764.944,360 767.348,358.252 767.348,356.098L767.348,343.902Z" style="fill:rgb(19,112,189);"/>
            </g>
            <g transform="matrix(0.932034,0,0,1.42857,-610.195,-425.714)">
                <path d="M767.348,343.902C767.348,341.748 764.944,340 761.983,340L751.254,340C748.293,340 745.889,341.748 745.889,343.902L745.889,356.098C745.889,358.252 748.293,360 751.254,360L761.983,360C764.944,360 767.348,358.252 767.348,356.098L767.348,343.902Z" style="fill:rgb(19,112,189);"/>
            </g>
            <g transform="matrix(0.932034,0,0,1.42857,-610.195,-390)">
                <path d="M767.348,343.902C767.348,341.748 764.944,340 761.983,340L751.254,340C748.293,340 745.889,341.748 745.889,343.902L745.889,356.098C745.889,358.252 748.293,360 751.254,360L761.983,360C764.944,360 767.348,358.252 767.348,356.098L767.348,343.902Z" style="fill:rgb(19,112,189);"/>
            </g>
            <g transform="matrix(0.932034,0,0,1.42857,-610.195,-354.286)">
                <path d="M767.348,343.902C767.348,341.748 764.944,340 761.983,340L751.254,340C748.293,340 745.889,341.748 745.889,343.902L745.889,356.098C745.889,358.252 748.293,360 751.254,360L761.983,360C764.944,360 767.348,358.252 767.348,356.098L767.348,343.902Z" style="fill:rgb(19,112,189);"/>
            </g>
            <g transform="matrix(0.932034,0,0,1.42857,-585.195,-425.714)">
                <path d="M767.348,343.902C767.348,341.748 764.944,340 761.983,340L751.254,340C748.293,340 745.889,341.748 745.889,343.902L745.889,356.098C745.889,358.252 748.293,360 751.254,360L761.983,360C764.944,360 767.348,358.252 767.348,356.098L767.348,343.902Z" style="fill:rgb(19,112,189);"/>
            </g>
            <g transform="matrix(0.932034,0,0,1.42857,-585.195,-390)">
                <path d="M767.348,343.902C767.348,341.748 764.944,340 761.983,340L751.254,340C748.293,340 745.889,341.748 745.889,343.902L745.889,356.098C745.889,358.252 748.293,360 751.254,360L761.983,360C764.944,360 767.348,358.252 767.348,356.098L767.348,343.902Z" style="fill:rgb(19,112,189);"/>
            </g>
            <g transform="matrix(0.932034,0,0,1.42857,-585.195,-354.286)">
                <path d="M767.348,343.902C767.348,341.748 764.944,340 761.983,340L751.254,340C748.293,340 745.889,341.748 745.889,343.902L745.889,356.098C745.889,358.252 748.293,360 751.254,360L761.983,360C764.944,360 767.348,358.252 767.348,356.098L767.348,343.902Z" style="fill:rgb(19,112,189);"/>
            </g>
        </g>
    </g>
</svg>
