<?xml version="1.0" encoding="UTF-8" standalone="no"?>
<!DOCTYPE svg PUBLIC "-//W3C//DTD SVG 1.1//EN" "http://www.w3.org/Graphics/SVG/1.1/DTD/svg11.dtd">
<svg width="100%" height="100%" viewBox="0 0 185 118" version="1.1" xmlns="http://www.w3.org/2000/svg" xmlns:xlink="http://www.w3.org/1999/xlink" xml:space="preserve" xmlns:serif="http://www.serif.com/" style="fill-rule:evenodd;clip-rule:evenodd;stroke-linejoin:round;stroke-miterlimit:2;">
    <g transform="matrix(1,0,0,1,-228.776,-191.759)">
        <g transform="matrix(2.57709,0,0,2.57709,-438.201,-183.181)">
            <text x="259.08px" y="153.09px" style="font-family:'CourierNewPS-BoldMT', 'Courier New', monospace;font-weight:700;font-size:12px;fill:rgb(52,121,232);">About page</text>
        </g>
        <g transform="matrix(1,0,0,1.01291,0,-11.6994)">
            <g transform="matrix(1,-0,-0,0.987259,228.776,200.867)">
                <path d="M80.038,81.986L80.152,81.997L80.267,82.013L80.38,82.034L80.492,82.062L80.603,82.094L80.712,82.132L80.819,82.175L80.924,82.223L81.027,82.276L81.127,82.334L81.223,82.397L81.317,82.465L81.407,82.537L81.494,82.613L81.577,82.693L87.013,88.212L92.532,82.776L92.616,82.697L92.704,82.622L92.795,82.551L92.89,82.485L92.988,82.424L93.088,82.367L93.192,82.316L93.297,82.269L93.405,82.228L93.515,82.191L93.626,82.161L93.739,82.135L93.852,82.115L93.967,82.101L94.082,82.092L94.197,82.089L94.313,82.091L94.428,82.099L94.543,82.112L94.657,82.131L94.769,82.155L94.881,82.185L94.991,82.22L95.099,82.261L95.205,82.306L95.309,82.357L95.41,82.413L95.508,82.473L95.604,82.538L95.696,82.608L95.784,82.682L95.869,82.76L95.95,82.843L96.027,82.929L96.1,83.018L96.168,83.111L96.232,83.208L96.291,83.307L96.345,83.409L96.394,83.513L96.438,83.62L96.477,83.729L96.51,83.839L96.538,83.951L96.561,84.065L96.578,84.179L96.59,84.294L96.596,84.409L96.597,84.524L96.592,84.64L96.581,84.755L96.565,84.869L96.543,84.982L96.516,85.095L96.484,85.205L96.446,85.314L96.403,85.421L96.354,85.526L96.301,85.629L96.243,85.729L96.18,85.826L96.113,85.919L96.041,86.01L95.965,86.096L95.885,86.179L88.664,93.292L88.581,93.37L88.495,93.443L88.405,93.513L88.312,93.578L88.216,93.639L88.117,93.695L88.015,93.746L87.912,93.793L87.806,93.834L87.698,93.871L87.589,93.902L87.478,93.928L87.366,93.949L87.253,93.964L87.14,93.974L87.027,93.978L86.913,93.978L86.799,93.971L86.686,93.96L86.574,93.943L86.462,93.92L86.352,93.893L86.243,93.86L86.136,93.822L86.031,93.779L85.928,93.731L85.827,93.678L85.729,93.62L85.634,93.558L85.542,93.491L85.453,93.42L85.368,93.345L85.286,93.266L78.173,86.046L78.094,85.962L78.02,85.874L77.949,85.782L77.883,85.688L77.822,85.59L77.765,85.489L77.713,85.386L77.667,85.28L77.625,85.173L77.589,85.063L77.558,84.952L77.533,84.839L77.513,84.725L77.499,84.611L77.49,84.496L77.486,84.38L77.489,84.265L77.497,84.15L77.51,84.035L77.529,83.921L77.553,83.808L77.583,83.697L77.618,83.587L77.659,83.479L77.704,83.373L77.755,83.269L77.811,83.168L77.871,83.069L77.936,82.974L78.006,82.882L78.08,82.793L78.158,82.709L78.24,82.627L78.327,82.551L78.416,82.478L78.509,82.41L78.606,82.346L78.705,82.287L78.807,82.233L78.911,82.184L79.018,82.14L79.127,82.101L79.237,82.067L79.349,82.039L79.462,82.016L79.577,81.999L79.691,81.988L79.807,81.981L79.922,81.981L80.038,81.986Z" style="fill:rgb(52,121,232);"/>
                <path d="M89.8,35.2L90.019,35.231L90.233,35.281L90.442,35.352L90.644,35.441L90.837,35.549L91.019,35.673L91.188,35.815L91.344,35.971L91.485,36.141L91.61,36.323L91.717,36.516L91.806,36.718L91.876,36.927L91.926,37.142L91.956,37.36L91.966,37.581L91.966,38.008L91.964,38.437L91.962,38.866L91.959,39.294L91.956,39.723L91.951,40.151L91.946,40.579L91.94,41.008L91.925,41.862L91.908,42.716L91.888,43.569L91.865,44.422L91.84,45.273L91.812,46.125L91.781,46.975L91.748,47.825L91.714,48.674L91.676,49.522L91.637,50.37L91.597,51.217L91.554,52.064L91.509,52.91L91.463,53.755L91.416,54.6L91.367,55.445L91.317,56.289L91.266,57.133L91.213,57.976L91.16,58.819L91.106,59.662L90.995,61.345L90.882,63.028L90.767,64.71L90.536,68.071L90.422,69.75L90.309,71.43L90.254,72.269L90.199,73.109L90.145,73.949L90.092,74.788L90.04,75.628L89.989,76.468L89.94,77.308L89.891,78.148L89.844,78.988L89.799,79.828L89.755,80.669L89.713,81.51L89.673,82.351L89.634,83.192L89.598,84.034L89.563,84.876L89.531,85.718L89.502,86.561L89.474,87.404L89.449,88.247L89.427,89.091L89.407,89.935L89.39,90.78L89.376,91.629L89.362,91.85L89.328,92.068L89.274,92.282L89.201,92.49L89.108,92.69L88.998,92.881L88.87,93.061L88.726,93.228L88.568,93.382L88.396,93.52L88.212,93.641L88.017,93.746L87.814,93.831L87.603,93.898L87.388,93.945L87.169,93.972L86.948,93.978L86.728,93.965L86.51,93.93L86.296,93.876L86.088,93.803L85.888,93.71L85.697,93.6L85.517,93.472L85.349,93.328L85.196,93.17L85.058,92.998L84.936,92.814L84.832,92.619L84.746,92.416L84.68,92.205L84.633,91.99L84.606,91.771L84.599,91.55L84.613,90.693L84.631,89.832L84.651,88.972L84.673,88.113L84.699,87.255L84.727,86.398L84.757,85.542L84.789,84.687L84.824,83.833L84.861,82.98L84.9,82.128L84.941,81.276L84.983,80.425L85.028,79.575L85.074,78.726L85.121,77.877L85.17,77.03L85.22,76.182L85.271,75.336L85.324,74.49L85.377,73.645L85.431,72.801L85.486,71.957L85.542,71.113L85.655,69.428L85.77,67.745L86,64.384L86.115,62.705L86.228,61.028L86.338,59.351L86.392,58.514L86.445,57.677L86.497,56.84L86.548,56.002L86.598,55.165L86.646,54.328L86.693,53.492L86.739,52.655L86.782,51.818L86.825,50.982L86.865,50.145L86.904,49.308L86.94,48.471L86.974,47.635L87.007,46.798L87.037,45.961L87.064,45.123L87.089,44.286L87.112,43.449L87.131,42.611L87.148,41.773L87.163,40.933L87.169,40.515L87.174,40.096L87.178,39.677L87.182,39.257L87.185,38.838L87.187,38.418L87.188,37.998L87.188,37.576L87.199,37.356L87.23,37.137L87.28,36.922L87.351,36.713L87.44,36.511L87.547,36.319L87.672,36.137L87.813,35.967L87.97,35.811L88.14,35.671L88.322,35.546L88.515,35.439L88.717,35.35L88.926,35.28L89.141,35.23L89.359,35.199L89.58,35.189L89.8,35.2Z" style="fill:rgb(52,121,232);"/>
            </g>
        </g>
    </g>
</svg>
