<?xml version="1.0" encoding="UTF-8" standalone="no"?>
<!DOCTYPE svg PUBLIC "-//W3C//DTD SVG 1.1//EN" "http://www.w3.org/Graphics/SVG/1.1/DTD/svg11.dtd">
<svg width="100%" height="100%" viewBox="0 0 67 72" version="1.1" xmlns="http://www.w3.org/2000/svg" xmlns:xlink="http://www.w3.org/1999/xlink" xml:space="preserve" xmlns:serif="http://www.serif.com/" style="fill-rule:evenodd;clip-rule:evenodd;stroke-linejoin:round;stroke-miterlimit:2;">
    <g transform="matrix(1,0,0,1,-196.818,-31.8825)">
        <g id="Grid">
            <g transform="matrix(0.905744,0,0,0.888806,20.0809,4.61021)">
                <ellipse cx="232.413" cy="71.251" rx="11.041" ry="11.251" style="fill:rgb(19,112,189);"/>
            </g>
            <g transform="matrix(0.905744,0,0,0.888806,42.8373,-8.69516)">
                <ellipse cx="232.413" cy="71.251" rx="11.041" ry="11.251" style="fill:rgb(19,112,189);"/>
            </g>
            <g transform="matrix(0.905744,0,0,0.888806,42.8373,17.8027)">
                <ellipse cx="232.413" cy="71.251" rx="11.041" ry="11.251" style="fill:rgb(19,112,189);"/>
            </g>
            <g transform="matrix(0.905744,0,0,0.888806,20.0809,29.6733)">
                <ellipse cx="232.413" cy="71.251" rx="11.041" ry="11.251" style="fill:rgb(19,112,189);"/>
            </g>
            <g transform="matrix(0.905744,0,0,0.888806,-3.68918,17.8027)">
                <ellipse cx="232.413" cy="71.251" rx="11.041" ry="11.251" style="fill:rgb(19,112,189);"/>
            </g>
            <g transform="matrix(0.905744,0,0,0.888806,-3.68918,-8.69516)">
                <ellipse cx="232.413" cy="71.251" rx="11.041" ry="11.251" style="fill:rgb(19,112,189);"/>
            </g>
            <g transform="matrix(0.905744,0,0,0.888806,20.0809,-21.4459)">
                <ellipse cx="232.413" cy="71.251" rx="11.041" ry="11.251" style="fill:rgb(19,112,189);"/>
            </g>
        </g>
    </g>
</svg>
