<?xml version="1.0" encoding="UTF-8" standalone="no"?>
<!DOCTYPE svg PUBLIC "-//W3C//DTD SVG 1.1//EN" "http://www.w3.org/Graphics/SVG/1.1/DTD/svg11.dtd">
<svg width="100%" height="100%" viewBox="0 0 602 40" version="1.1" xmlns="http://www.w3.org/2000/svg" xmlns:xlink="http://www.w3.org/1999/xlink" xml:space="preserve" xmlns:serif="http://www.serif.com/" style="fill-rule:evenodd;clip-rule:evenodd;stroke-linejoin:round;stroke-miterlimit:2;">
    <g transform="matrix(1,0,0,1,-20,-340)">
        <g id="Line" transform="matrix(0.482306,0,0,0.0536413,11.9189,343.231)">
            <rect x="16.755" y="312.611" width="1244.02" height="27.768" style="fill:rgb(19,112,189);"/>
        </g>
        <g id="Last-thicc-line" serif:id="Last thicc line" transform="matrix(0.63167,0,0,0.792056,608.637,86.7858)">
            <rect x="17.988" y="319.692" width="3.166" height="50.502" style="fill:rgb(19,112,189);"/>
        </g>
        <g id="One-row" serif:id="One row" transform="matrix(1,0,0,1,400,0)">
            <g transform="matrix(0.63167,0,0,0.396028,28.6375,223.393)">
                <rect x="17.988" y="319.692" width="3.166" height="50.502" style="fill:rgb(19,112,189);"/>
            </g>
            <g transform="matrix(0.63167,0,0,0.396028,48.6375,223.393)">
                <rect x="17.988" y="319.692" width="3.166" height="50.502" style="fill:rgb(19,112,189);"/>
            </g>
            <g transform="matrix(0.63167,0,0,0.396028,68.6375,223.393)">
                <rect x="17.988" y="319.692" width="3.166" height="50.502" style="fill:rgb(19,112,189);"/>
            </g>
            <g transform="matrix(0.63167,0,0,0.396028,88.6375,223.393)">
                <rect x="17.988" y="319.692" width="3.166" height="50.502" style="fill:rgb(19,112,189);"/>
            </g>
            <g transform="matrix(0.63167,0,0,0.396028,108.637,223.393)">
                <rect x="17.988" y="319.692" width="3.166" height="50.502" style="fill:rgb(19,112,189);"/>
            </g>
            <g transform="matrix(0.63167,0,0,0.396028,128.637,223.393)">
                <rect x="17.988" y="319.692" width="3.166" height="50.502" style="fill:rgb(19,112,189);"/>
            </g>
            <g transform="matrix(0.63167,0,0,0.396028,148.637,223.393)">
                <rect x="17.988" y="319.692" width="3.166" height="50.502" style="fill:rgb(19,112,189);"/>
            </g>
            <g transform="matrix(0.63167,0,0,0.396028,168.637,223.393)">
                <rect x="17.988" y="319.692" width="3.166" height="50.502" style="fill:rgb(19,112,189);"/>
            </g>
            <g transform="matrix(0.63167,0,0,0.396028,188.637,223.393)">
                <rect x="17.988" y="319.692" width="3.166" height="50.502" style="fill:rgb(19,112,189);"/>
            </g>
            <g transform="matrix(0.63167,0,0,0.792056,8.63745,86.7858)">
                <rect x="17.988" y="319.692" width="3.166" height="50.502" style="fill:rgb(19,112,189);"/>
            </g>
        </g>
        <g id="One-row1" serif:id="One row" transform="matrix(1,0,0,1,200,0)">
            <g transform="matrix(0.63167,0,0,0.396028,28.6375,223.393)">
                <rect x="17.988" y="319.692" width="3.166" height="50.502" style="fill:rgb(19,112,189);"/>
            </g>
            <g transform="matrix(0.63167,0,0,0.396028,48.6375,223.393)">
                <rect x="17.988" y="319.692" width="3.166" height="50.502" style="fill:rgb(19,112,189);"/>
            </g>
            <g transform="matrix(0.63167,0,0,0.396028,68.6375,223.393)">
                <rect x="17.988" y="319.692" width="3.166" height="50.502" style="fill:rgb(19,112,189);"/>
            </g>
            <g transform="matrix(0.63167,0,0,0.396028,88.6375,223.393)">
                <rect x="17.988" y="319.692" width="3.166" height="50.502" style="fill:rgb(19,112,189);"/>
            </g>
            <g transform="matrix(0.63167,0,0,0.396028,108.637,223.393)">
                <rect x="17.988" y="319.692" width="3.166" height="50.502" style="fill:rgb(19,112,189);"/>
            </g>
            <g transform="matrix(0.63167,0,0,0.396028,128.637,223.393)">
                <rect x="17.988" y="319.692" width="3.166" height="50.502" style="fill:rgb(19,112,189);"/>
            </g>
            <g transform="matrix(0.63167,0,0,0.396028,148.637,223.393)">
                <rect x="17.988" y="319.692" width="3.166" height="50.502" style="fill:rgb(19,112,189);"/>
            </g>
            <g transform="matrix(0.63167,0,0,0.396028,168.637,223.393)">
                <rect x="17.988" y="319.692" width="3.166" height="50.502" style="fill:rgb(19,112,189);"/>
            </g>
            <g transform="matrix(0.63167,0,0,0.396028,188.637,223.393)">
                <rect x="17.988" y="319.692" width="3.166" height="50.502" style="fill:rgb(19,112,189);"/>
            </g>
            <g transform="matrix(0.63167,0,0,0.792056,8.63745,86.7858)">
                <rect x="17.988" y="319.692" width="3.166" height="50.502" style="fill:rgb(19,112,189);"/>
            </g>
        </g>
        <g id="One-row2" serif:id="One row">
            <g transform="matrix(0.63167,0,0,0.396028,28.6375,223.393)">
                <rect x="17.988" y="319.692" width="3.166" height="50.502" style="fill:rgb(19,112,189);"/>
            </g>
            <g transform="matrix(0.63167,0,0,0.396028,48.6375,223.393)">
                <rect x="17.988" y="319.692" width="3.166" height="50.502" style="fill:rgb(19,112,189);"/>
            </g>
            <g transform="matrix(0.63167,0,0,0.396028,68.6375,223.393)">
                <rect x="17.988" y="319.692" width="3.166" height="50.502" style="fill:rgb(19,112,189);"/>
            </g>
            <g transform="matrix(0.63167,0,0,0.396028,88.6375,223.393)">
                <rect x="17.988" y="319.692" width="3.166" height="50.502" style="fill:rgb(19,112,189);"/>
            </g>
            <g transform="matrix(0.63167,0,0,0.396028,108.637,223.393)">
                <rect x="17.988" y="319.692" width="3.166" height="50.502" style="fill:rgb(19,112,189);"/>
            </g>
            <g transform="matrix(0.63167,0,0,0.396028,128.637,223.393)">
                <rect x="17.988" y="319.692" width="3.166" height="50.502" style="fill:rgb(19,112,189);"/>
            </g>
            <g transform="matrix(0.63167,0,0,0.396028,148.637,223.393)">
                <rect x="17.988" y="319.692" width="3.166" height="50.502" style="fill:rgb(19,112,189);"/>
            </g>
            <g transform="matrix(0.63167,0,0,0.396028,168.637,223.393)">
                <rect x="17.988" y="319.692" width="3.166" height="50.502" style="fill:rgb(19,112,189);"/>
            </g>
            <g transform="matrix(0.63167,0,0,0.396028,188.637,223.393)">
                <rect x="17.988" y="319.692" width="3.166" height="50.502" style="fill:rgb(19,112,189);"/>
            </g>
            <g transform="matrix(0.63167,0,0,0.792056,8.63745,86.7858)">
                <rect x="17.988" y="319.692" width="3.166" height="50.502" style="fill:rgb(19,112,189);"/>
            </g>
        </g>
    </g>
</svg>
